<svg width="709" height="109" viewBox="0 0 709 109" fill="none" xmlns="http://www.w3.org/2000/svg">
<path d="M697.677 84.0527C697.265 86.5174 693.662 86.5174 693.249 84.0527L691.973 76.4285L684.222 75.1727C681.717 74.7667 681.717 71.2228 684.222 70.8168L691.973 69.561L693.249 61.9368C693.662 59.472 697.265 59.472 697.677 61.9368L698.954 69.561L706.704 70.8168C709.21 71.2228 709.21 74.7667 706.704 75.1727L698.954 76.4285L697.677 84.0527Z" fill="#2D2F4E"/>
<path d="M671.866 107.205C671.593 108.836 669.21 108.836 668.937 107.205L668.092 102.162L662.965 101.331C661.307 101.062 661.307 98.7178 662.965 98.4493L668.092 97.6185L668.937 92.5748C669.21 90.9443 671.593 90.9443 671.866 92.5748L672.71 97.6185L677.838 98.4493C679.495 98.7178 679.495 101.062 677.838 101.331L672.71 102.162L671.866 107.205Z" fill="#3B4BB1"/>
<path d="M11.4683 24.3386C11.881 26.8033 15.4837 26.8033 15.8964 24.3386L17.173 16.7144L24.9233 15.4586C27.4288 15.0526 27.4288 11.5086 24.9233 11.1027L17.173 9.84684L15.8964 2.2227C15.4837 -0.24207 11.881 -0.242066 11.4683 2.2227L10.1917 9.84684L2.44142 11.1027C-0.0641353 11.5086 -0.0641321 15.0526 2.44143 15.4586L10.1917 16.7144L11.4683 24.3386Z" fill="#2D2F4E"/>
<path d="M37.2798 47.4912C37.5529 49.1217 39.9361 49.1217 40.2092 47.4912L41.0537 42.4475L46.1808 41.6168C47.8383 41.3482 47.8383 39.0037 46.1808 38.7351L41.0537 37.9044L40.2092 32.8607C39.9361 31.2302 37.5529 31.2302 37.2798 32.8607L36.4353 37.9044L31.3082 38.7351C29.6507 39.0037 29.6507 41.3482 31.3082 41.6168L36.4353 42.4475L37.2798 47.4912Z" fill="#3B4BB1"/>
</svg>
