<svg width="70" height="69" viewBox="0 0 70 69" fill="none" xmlns="http://www.w3.org/2000/svg">
<g opacity="0.5">
<path d="M70 34.2857C70 53.2212 54.33 68.5714 35 68.5714C15.67 68.5714 0 53.2212 0 34.2857C0 15.3502 15.67 0 35 0C54.33 0 70 15.3502 70 34.2857Z" fill="#2D2F4E"/>
<path fill-rule="evenodd" clip-rule="evenodd" d="M36.7639 9.02454C36.9523 9.04665 37.5249 9.11005 38.0363 9.16553C41.2657 9.51578 44.8418 10.727 47.7275 12.4481C51.4002 14.6383 54.3852 17.6221 56.5764 21.2931C58.2841 24.154 59.4184 27.4786 59.8811 30.98C60.0396 32.1788 60.0396 35.8471 59.8811 37.0459C59.4184 40.5474 58.2841 43.872 56.5764 46.7329C54.3852 50.4039 51.4002 53.3877 47.7275 55.5779C44.8654 57.2849 41.5393 58.4186 38.0363 58.8812C36.837 59.0396 33.1671 59.0396 31.9678 58.8812C25.873 58.0763 20.7068 55.4006 16.4905 50.8652C14.1579 48.3561 12.3331 45.2352 11.2131 41.84C10.3303 39.1636 10 37.0325 10 34.013C10 31.7792 10.0944 30.7923 10.4955 28.8276C11.8709 22.0915 16.2007 16.0716 22.2766 12.4481C25.1095 10.7585 28.4877 9.6008 31.8699 9.16034C32.7283 9.04861 36.157 8.95341 36.7639 9.02454ZM32.9955 12.0006C27.2901 12.5234 21.7802 15.3905 18.144 19.7288C13.3802 25.4124 11.7627 32.8066 13.7203 39.9506C14.4735 42.6991 15.8095 45.3322 17.6201 47.6366C17.9477 48.0535 18.2391 48.3947 18.2679 48.3948C18.2967 48.3949 18.4478 47.9703 18.6038 47.4512C19.4384 44.6746 21.3738 41.6962 23.6215 39.73C25.0314 38.4965 26.9533 37.312 28.6868 36.6082L29.0763 36.4501L28.7358 36.1954C28.1248 35.7384 26.6195 34.1563 26.2574 33.5903C24.8738 31.4285 24.288 29.0915 24.531 26.7035C24.8953 23.1236 26.9826 20.0397 30.1584 18.3895C36.7581 14.9599 44.7177 19.281 45.4731 26.7035C45.6692 28.6301 45.2976 30.6615 44.4364 32.3723C43.7431 33.7494 42.5829 35.1739 41.4532 36.035C41.1889 36.2364 40.9733 36.4253 40.9739 36.4545C40.9746 36.4839 41.294 36.636 41.6835 36.7927C44.3252 37.8551 46.975 39.9295 48.8181 42.3781C49.8852 43.7958 50.9032 45.7975 51.4033 47.4614C51.5576 47.9749 51.7074 48.3949 51.7362 48.3948C51.8195 48.3944 52.9316 46.9502 53.4925 46.1139C54.1057 45.1998 55.1967 43.0862 55.6388 41.9563C56.3961 40.0207 56.8737 37.7813 57.0477 35.3499C57.5492 28.3414 54.3964 21.2153 48.8334 16.7833C44.3409 13.2041 38.6423 11.4833 32.9955 12.0006ZM32.9466 20.4122C30.4316 21.1288 28.4617 23.0965 27.7048 25.6479C27.3602 26.8096 27.334 28.4779 27.6424 29.6244C28.5533 33.0114 31.5092 35.2849 35.002 35.2849C38.4949 35.2849 41.4508 33.0114 42.3617 29.6244C42.6701 28.4779 42.6439 26.8096 42.2993 25.6479C41.4396 22.75 39.2069 20.788 36.0787 20.1816C35.511 20.0715 33.665 20.2074 32.9466 20.4122ZM32.9955 38.5245C29.9628 38.912 27.2756 40.2657 24.9631 42.5707C23.2127 44.3154 22.1206 46.0787 21.4137 48.3016C21.1625 49.0912 20.7628 50.9487 20.8357 50.9867C20.8482 50.9933 21.1447 51.2216 21.4946 51.4943C24.5133 53.8463 28.1446 55.3523 32.2125 55.9391C33.3481 56.1029 36.656 56.1029 37.7916 55.9391C41.8595 55.3523 45.4908 53.8463 48.5095 51.4943C48.8594 51.2216 49.1561 50.9931 49.1687 50.9864C49.1814 50.9798 49.1276 50.6094 49.0491 50.1634C48.16 45.1087 44.5329 40.8696 39.6405 39.1673C37.4744 38.4138 35.4183 38.2148 32.9955 38.5245Z" fill="white"/>
</g>
</svg>
